
<svg xmlns="http://www.w3.org/2000/svg" style="display: none;">
      <symbol id="heart" viewBox="0 0 20 20">
        <path fill-rule="evenodd" clip-rule="evenodd" d="M9.99486 4.93014C8.49535 3.18262 5.99481 2.71255 4.11602 4.31275C2.23723 5.91295 1.97273 8.5884 3.44815 10.481C4.67486 12.0545 8.38733 15.3732 9.60407 16.4474C9.7402 16.5675 9.80827 16.6276 9.88766 16.6512C9.95695 16.6718 10.0328 16.6718 10.1021 16.6512C10.1815 16.6276 10.2495 16.5675 10.3857 16.4474C11.6024 15.3732 15.3149 12.0545 16.5416 10.481C18.017 8.5884 17.7848 5.89611 15.8737 4.31275C13.9626 2.72938 11.4944 3.18262 9.99486 4.93014Z" stroke="#807D7E" stroke-width="1.5" stroke-linecap="round" stroke-linejoin="round"/>
      </symbol>


      <symbol id="filter_icon" viewBox="0 0 17 20">
      <path d="M2.83333 6.33333L2.83333 1.75M2.83333 18.25L2.83333 10M13.8333 18.25L13.8333 10M8.33333 18.25V13.6667M8.33333 10V1.75M13.8333 6.33333L13.8333 1.75M1 6.33333H4.66667M6.5 13.6667H10.1667M12 6.33333L15.6667 6.33333" stroke="#807D7E" stroke-width="1.8" stroke-linecap="round"/></symbol>
</svg>